<?xml version="1.0" encoding="UTF-8" standalone="no"?>
<!DOCTYPE svg PUBLIC "-//W3C//DTD SVG 1.1//EN"
 "http://www.w3.org/Graphics/SVG/1.1/DTD/svg11.dtd">
<!-- Generated by graphviz version 2.38.0 (20140413.2041)
 -->
<!-- Title: Dependencies Pages: 1 -->
<svg width="474pt" height="283pt"
 viewBox="0.00 0.00 474.00 283.00" xmlns="http://www.w3.org/2000/svg" xmlns:xlink="http://www.w3.org/1999/xlink">
<g id="graph0" class="graph" transform="scale(1 1) rotate(0) translate(4 279)">
<title>Dependencies</title>
<polygon fill="white" stroke="none" points="-4,4 -4,-279 470,-279 470,4 -4,4"/>
<!-- <text text-anchor="middle" x="233" y="-7.8" font-family="Times,serif" font-size="14.00">Dependències entre mòduls. Verd: a completar per l&#39;estudiant.</text> -->
<!-- Main -->
<g id="node1" class="node"><title>Main</title>
<ellipse fill="yellow" stroke="black" cx="252.401" cy="-257" rx="34.394" ry="18"/>
<text text-anchor="middle" x="252.401" y="-253.3" font-family="Times,serif" font-size="14.00">Main</text>
</g>
<!-- App -->
<g id="node2" class="node"><title>App</title>
<ellipse fill="yellow" stroke="black" cx="252.401" cy="-185" rx="29.4969" ry="18"/>
<text text-anchor="middle" x="252.401" y="-181.3" font-family="Times,serif" font-size="14.00">App</text>
</g>
<!-- Main&#45;&gt;App -->
<g id="edge1" class="edge"><title>Main&#45;&gt;App</title>
<path fill="none" stroke="black" d="M252.401,-238.697C252.401,-230.983 252.401,-221.712 252.401,-213.112"/>
<polygon fill="black" stroke="black" points="255.901,-213.104 252.401,-203.104 248.901,-213.104 255.901,-213.104"/>
</g>
<!-- Handler -->
<g id="node3" class="node"><title>Handler</title>
<ellipse fill="#00ff00" stroke="black" cx="214.401" cy="-113" rx="48.9926" ry="18"/>
<text text-anchor="middle" x="214.401" y="-109.3" font-family="Times,serif" font-size="14.00">Handler</text>
</g>
<!-- App&#45;&gt;Handler -->
<g id="edge2" class="edge"><title>App&#45;&gt;Handler</title>
<path fill="none" stroke="black" d="M243.587,-167.765C239.115,-159.525 233.573,-149.317 228.524,-140.016"/>
<polygon fill="black" stroke="black" points="231.544,-138.243 223.697,-131.124 225.392,-141.582 231.544,-138.243"/>
</g>
<!-- Calc -->
<g id="node4" class="node"><title>Calc</title>
<ellipse fill="yellow" stroke="black" cx="351.401" cy="-113" rx="31.6951" ry="18"/>
<text text-anchor="middle" x="351.401" y="-109.3" font-family="Times,serif" font-size="14.00">Calc</text>
</g>
<!-- App&#45;&gt;Calc -->
<g id="edge3" class="edge"><title>App&#45;&gt;Calc</title>
<path fill="none" stroke="black" d="M271.022,-170.834C285.904,-160.311 306.985,-145.405 323.824,-133.499"/>
<polygon fill="black" stroke="black" points="326.043,-136.216 332.188,-127.585 322.002,-130.5 326.043,-136.216"/>
</g>
<!-- Html -->
<g id="node5" class="node"><title>Html</title>
<ellipse fill="yellow" stroke="black" cx="112.401" cy="-41" rx="34.394" ry="18"/>
<text text-anchor="middle" x="112.401" y="-37.3" font-family="Times,serif" font-size="14.00">Html</text>
</g>
<!-- App&#45;&gt;Html -->
<g id="edge4" class="edge"><title>App&#45;&gt;Html</title>
<path fill="none" stroke="black" d="M227.642,-175.224C206.489,-166.682 176.394,-151.92 156.401,-131 139.442,-113.255 127.735,-87.7117 120.685,-68.5374"/>
<polygon fill="black" stroke="black" points="123.923,-67.1932 117.332,-58.8986 117.312,-69.4934 123.923,-67.1932"/>
</g>
<!-- TextUtils -->
<g id="node6" class="node"><title>TextUtils</title>
<ellipse fill="yellow" stroke="black" cx="335.401" cy="-41" rx="52.7911" ry="18"/>
<text text-anchor="middle" x="335.401" y="-37.3" font-family="Times,serif" font-size="14.00">TextUtils</text>
</g>
<!-- App&#45;&gt;TextUtils -->
<g id="edge5" class="edge"><title>App&#45;&gt;TextUtils</title>
<path fill="none" stroke="black" d="M261.922,-167.711C276.215,-143.257 303.35,-96.8343 320.344,-67.7592"/>
<polygon fill="black" stroke="black" points="323.452,-69.3783 325.477,-58.9787 317.409,-65.8459 323.452,-69.3783"/>
</g>
<!-- Handler&#45;&gt;Html -->
<g id="edge7" class="edge"><title>Handler&#45;&gt;Html</title>
<path fill="none" stroke="black" d="M192.268,-96.811C177.24,-86.4972 157.224,-72.761 140.99,-61.62"/>
<polygon fill="black" stroke="black" points="142.641,-58.5085 132.416,-55.7358 138.681,-64.2801 142.641,-58.5085"/>
</g>
<!-- Handler&#45;&gt;TextUtils -->
<g id="edge8" class="edge"><title>Handler&#45;&gt;TextUtils</title>
<path fill="none" stroke="black" d="M239.472,-97.496C257.16,-87.263 281.087,-73.421 300.62,-62.1213"/>
<polygon fill="black" stroke="black" points="302.624,-65.0056 309.527,-56.9684 299.118,-58.9465 302.624,-65.0056"/>
</g>
<!-- WaiUtils -->
<g id="node7" class="node"><title>WaiUtils</title>
<ellipse fill="yellow" stroke="black" cx="214.401" cy="-41" rx="50.0912" ry="18"/>
<text text-anchor="middle" x="214.401" y="-37.3" font-family="Times,serif" font-size="14.00">WaiUtils</text>
</g>
<!-- Handler&#45;&gt;WaiUtils -->
<g id="edge6" class="edge"><title>Handler&#45;&gt;WaiUtils</title>
<path fill="none" stroke="black" d="M214.401,-94.6966C214.401,-86.9827 214.401,-77.7125 214.401,-69.1124"/>
<polygon fill="black" stroke="black" points="217.901,-69.1043 214.401,-59.1043 210.901,-69.1044 217.901,-69.1043"/>
</g>
</g>
</svg>
